PathFileType	4	(X/Y/Z)	C:\Users\Basilio\Documents\Thesis Gigler\squatting_fais\c3dfiles\039\SJ_pre3\markers_experimental.trc
DataRate	CameraRate	NumFrames	NumMarkers	Units	OrigDataRate	OrigDataStartFrame	OrigNumFrames
200.000000	200.000000	4	63	mm	200.000000	1320	1760
Frame#	Time	FHD			LBHD			RBHD			C7			T10			CLAV			LSHO			LUUPA			LMUPA			LDUPA			LLEP			LMEP			LRAD			LUL			LRFIN			RSHO			RUPA1			RMUPA			RDUPA			RLEP			RMEP			RRAD			RUL			RUFIN			LASI			RASI			USACR			LSACR			RSACR			LTHI1			LTHI2			LTHI3			LTHI4			LLFC			LMFC			LTIB1			LTIB2			LTIB3			LTIB4			LLMAL			LMMAL			LHEE			LMT1			LMT2			LMT5			RTHI			RTHI2			RTHI3			RTHI4			RLFC			RMFC			RTIB1			RTIB2			RTIB3			RTIB4			RLMAL			RMMAL			RHEE			RMT1			RMT2			RMT5			*61			*62			
		X1	Y1	Z1	X2	Y2	Z2	X3	Y3	Z3	X4	Y4	Z4	X5	Y5	Z5	X6	Y6	Z6	X7	Y7	Z7	X8	Y8	Z8	X9	Y9	Z9	X10	Y10	Z10	X11	Y11	Z11	X12	Y12	Z12	X13	Y13	Z13	X14	Y14	Z14	X15	Y15	Z15	X16	Y16	Z16	X17	Y17	Z17	X18	Y18	Z18	X19	Y19	Z19	X20	Y20	Z20	X21	Y21	Z21	X22	Y22	Z22	X23	Y23	Z23	X24	Y24	Z24	X25	Y25	Z25	X26	Y26	Z26	X27	Y27	Z27	X28	Y28	Z28	X29	Y29	Z29	X30	Y30	Z30	X31	Y31	Z31	X32	Y32	Z32	X33	Y33	Z33	X34	Y34	Z34	X35	Y35	Z35	X36	Y36	Z36	X37	Y37	Z37	X38	Y38	Z38	X39	Y39	Z39	X40	Y40	Z40	X41	Y41	Z41	X42	Y42	Z42	X43	Y43	Z43	X44	Y44	Z44	X45	Y45	Z45	X46	Y46	Z46	X47	Y47	Z47	X48	Y48	Z48	X49	Y49	Z49	X50	Y50	Z50	X51	Y51	Z51	X52	Y52	Z52	X53	Y53	Z53	X54	Y54	Z54	X55	Y55	Z55	X56	Y56	Z56	X57	Y57	Z57	X58	Y58	Z58	X59	Y59	Z59	X60	Y60	Z60	X61	Y61	Z61	X62	Y62	Z62	X63	Y63	Z63	

1321	6.600000000000001	-190.8697967529297	1765.105712890625	-815.856140136719	-314.4459533691407	1671.064208984375	-941.983581542969	-302.4921264648438	1690.621704101563	-802.819274902344	-311.6586914062501	1536.878295898438	-869.6850585937502	-317.8914489746094	1229.410278320313	-871.413269042969	-156.46728515625	1484.1923828125	-867.1066894531252	-218.7734680175782	1524.601318359375	-1055.8671875	-298.1328430175782	1385.244018554688	-1217.765258789063	-260.4157104492188	1351.119262695313	-1219.555541992188	-299.0672302246094	1329.8037109375	-1260.9716796875	-294.2933654785157	1263.07275390625	-1289.482299804688	-372.5578002929688	1248.2021484375	-1248.5263671875	-296.9594726562501	1026.476684570313	-1112.340087890625	-243.9895629882813	1007.538818359375	-1163.915283203125	-248.4381561279297	1035.47119140625	-1061.556884765625	-198.1589355468751	1534.582153320313	-676.6457519531251	-327.6107482910157	1419.172607421875	-531.1236572265626	-297.1825256347657	1383.063354492188	-513.6447753906251	-348.7986755371094	1369.229248046875	-486.1715698242189	-348.2387390136719	1304.09521484375	-454.5480041503907	-419.8095092773439	1292.781005859375	-506.0133666992189	-300.3918762207032	1088.279663085938	-656.1750488281251	-293.1616516113282	1042.203491210938	-595.4287719726564	-242.7166290283204	1059.901489257813	-696.2230224609376	-176.3426208496094	1026.7763671875	-978.2341918945315	-186.4285430908203	1018.93359375	-759.2324218750001	-349.1036071777344	1106.444580078125	-871.9812622070315	-358.9345092773438	1077.118896484375	-900.7177734375002	-364.2467651367188	1077.072021484375	-842.4878540039065	-221.794174194336	755.0604248046876	-1071.31640625	-176.9429931640625	683.6043090820314	-1082.161987304688	-129.6614074707032	693.9248657226564	-1079.304565429688	-192.9570007324219	627.0462036132814	-1070.140502929688	-175.0627899169922	510.4011840820314	-1074.557006835938	-134.5304107666016	480.3450012207032	-964.7168579101565	-147.6420440673828	356.3840026855469	-1058.948486328125	-224.1649322509766	335.7326049804688	-1096.54638671875	-186.1971435546875	321.3514099121094	-1081.588745117188	-208.4172973632813	244.1357727050782	-1039.8857421875	-321.3126831054688	101.6126174926758	-1066.274169921875	-291.6143493652344	93.98293304443361	-982.7386474609377	-390.3956298828126	43.16320419311524	-1017.02880859375	-157.8989715576172	54.86729812622072	-1049.426391601563	-172.7261352539063	55.16184234619142	-1090.852294921875	-225.5222167968751	32.42761611938477	-1132.904541015625	-210.7928009033204	759.0255737304689	-672.3889770507814	-161.288070678711	714.0774536132814	-663.8237304687501	-130.1014862060547	722.3064575195314	-670.6222534179689	-172.8582611083985	628.7716674804689	-667.4857788085939	-185.5408935546875	494.6799621582032	-681.5543823242189	-145.3072357177735	476.856414794922	-789.8198242187502	-195.9439697265626	284.9808349609376	-690.2163696289064	-293.9832153320313	241.1637725830079	-687.1038208007814	-250.9431152343751	222.4425659179688	-685.0683593750001	-242.1073455810547	169.6302337646485	-712.3104248046876	-331.0355834960938	96.39278411865237	-694.7209472656251	-289.2120361328126	99.317741394043	-775.7378540039065	-395.8553771972657	44.98140335083009	-750.8260498046876	-164.7979736328125	49.09486389160158	-706.5476684570314	-178.5586853027344	56.90428924560548	-662.9871215820314	-240.6434478759766	32.99421691894532	-621.4041137695314	nan	nan	nan	nan	nan	nan	
1322	6.605	-192.4230346679688	1768.438110351563	-815.6477050781252	-316.0510559082032	1674.290161132813	-941.904479980469	-304.3495483398438	1693.719482421875	-802.4907836914065	-312.5612182617188	1540.364868164063	-869.5044555664065	-318.3128051757813	1232.986694335938	-871.284851074219	-157.4950256347657	1487.9697265625	-867.0137329101565	-219.5799102783204	1528.40771484375	-1055.515625	-298.7029724121094	1389.276977539063	-1217.81884765625	-261.1717529296876	1355.155151367188	-1219.526977539063	-299.7635192871094	1333.722412109375	-1261.048706054688	-295.0563049316407	1266.949096679688	-1289.4306640625	-373.3417968750001	1252.08642578125	-1248.529907226563	-297.3429260253907	1030.574829101563	-1111.962768554688	-244.3740844726563	1011.591613769531	-1163.787109375	-248.9618225097657	1039.391845703125	-1061.24609375	-198.8438415527344	1538.499267578125	-676.8803710937501	-327.4265747070313	1423.36328125	-530.5047607421876	-297.1370849609376	1386.831909179688	-513.5181274414064	-348.7893371582032	1373.148071289063	-485.9651184082032	-348.1332702636719	1307.96142578125	-454.3617553710939	-419.857147216797	1296.99365234375	-505.7423400878907	-300.1906738281251	1092.323120117188	-655.8641357421876	-292.6023254394532	1046.36474609375	-595.2018432617189	-242.4934844970704	1063.947875976563	-695.9951782226564	-176.6427917480469	1030.236572265625	-978.1353759765627	-186.193588256836	1022.493041992188	-759.1284790039064	-349.8039245605469	1109.750854492188	-871.3320922851565	-358.9938354492188	1080.557006835938	-900.110046386719	-364.4177856445313	1080.30517578125	-841.9687500000002	-223.6341552734376	758.0203247070314	-1070.797485351563	-179.2943572998047	686.5838012695314	-1081.543701171875	-131.5381469726563	695.7561035156251	-1078.170043945313	-195.7957458496094	629.6096801757814	-1069.66015625	-179.151596069336	512.6514282226564	-1074.066528320313	-138.6389617919922	482.1446228027345	-964.2398071289065	-150.6199798583985	358.6087036132813	-1058.571533203125	-227.3583526611329	337.3635559082032	-1096.341674804688	-189.1798553466797	323.1968994140626	-1081.646362304688	-210.506576538086	245.621566772461	-1039.970581054688	-321.8572082519532	102.0425643920899	-1066.514404296875	-292.1177062988282	94.5182342529297	-983.2468872070315	-390.600067138672	43.34083938598634	-1017.298950195313	-158.050765991211	54.57703781127931	-1049.654907226563	-172.81298828125	55.26029205322267	-1090.880737304688	-225.5682678222657	32.39465713500977	-1132.953979492188	-211.865219116211	761.7170410156251	-672.5795288085939	-163.1482849121094	715.7383422851564	-664.4224243164064	-131.7155303955078	724.0831909179689	-671.2610473632814	-175.0745849609375	630.9816894531251	-668.2829589843751	-189.5148162841797	496.4589233398439	-682.6025390625001	-149.3235626220703	478.6340637207032	-790.7897949218752	-198.351791381836	286.6095581054688	-690.3007202148439	-295.9221496582032	241.9244079589844	-687.1735229492189	-252.5901947021485	223.2349853515626	-685.2473144531251	-243.2998657226563	170.5101165771485	-712.1008911132814	-331.4732971191407	96.56518554687503	-694.3735351562501	-289.8524169921876	99.76336669921878	-775.271423339844	-396.1844482421876	44.96081161499024	-750.3800659179689	-164.9937286376953	49.13296508789064	-706.4616699218751	-178.6357879638672	57.00222396850587	-662.9362792968751	-240.6241455078126	32.90810775756837	-621.3166503906251	nan	nan	nan	nan	nan	nan	
1323	6.61	-194.0602722167969	1771.29638671875	-815.4221801757815	-317.5010070800782	1677.225219726563	-941.973083496094	-306.0229187011719	1696.73779296875	-802.6171875000002	-313.4317321777344	1543.611083984375	-869.364440917969	-318.8766174316407	1236.306396484375	-870.944274902344	-158.3241729736328	1491.424560546875	-867.1671142578127	-220.5539703369141	1532.119140625	-1055.22705078125	-299.3148803710938	1393.110107421875	-1217.843383789063	-261.6912231445313	1359.253295898438	-1219.563598632813	-300.4449157714844	1337.65185546875	-1260.9990234375	-295.8813476562501	1270.701171875	-1289.305297851563	-374.3812255859376	1256.174072265625	-1248.4990234375	-297.9120178222657	1034.59423828125	-1111.52685546875	-245.4125366210938	1015.442077636719	-1163.317504882813	-249.4270172119141	1043.1474609375	-1060.810180664063	-199.3024291992188	1541.962524414063	-677.0616455078126	-327.4011230468751	1427.123046875	-530.1387329101564	-297.1211547851563	1390.690185546875	-513.3031616210939	-348.5868835449219	1376.89697265625	-485.5498962402345	-348.1233520507813	1311.766357421875	-453.9549865722657	-419.991180419922	1300.40185546875	-505.021453857422	-299.7877502441407	1096.200073242188	-655.6327514648439	-292.3757019042969	1050.085571289063	-594.8725585937501	-242.1375732421876	1067.835571289063	-695.8439331054689	-176.9910125732422	1033.498901367188	-978.133972167969	-186.0323791503907	1025.783081054688	-758.9106445312501	-349.8561401367188	1112.885864257813	-870.8748779296877	-360.4054565429688	1083.586181640625	-900.1680297851565	-364.7321166992188	1083.218505859375	-841.4235839843752	-225.1997680664063	761.3513793945314	-1070.350830078125	-181.4564666748047	689.0065917968751	-1080.948608398438	-133.6082611083985	698.1480102539064	-1077.380981445313	-198.5278930664063	632.5632934570314	-1069.44384765625	-182.9501495361328	514.7442626953126	-1073.64697265625	-143.0370483398438	483.9069213867189	-964.0142211914065	-153.971908569336	360.5975036621094	-1058.609985351563	-230.4076232910157	339.3732910156251	-1096.01708984375	-191.8585510253907	325.2509765625001	-1081.50634765625	-212.2213897705079	247.3792266845704	-1040.114501953125	-322.5007934570313	102.4191513061524	-1066.914306640625	-292.3515319824219	94.85927581787111	-983.682067871094	-390.7630004882814	43.39752578735352	-1017.64697265625	-158.1719970703125	54.73632431030275	-1049.728393554688	-172.9125671386719	55.30755615234376	-1090.86181640625	-225.5315704345704	32.34391784667969	-1132.966064453125	-213.1823425292969	764.2655029296876	-672.8687744140626	-164.7947692871094	717.7006835937501	-665.1016845703126	-133.1947326660157	725.9914550781251	-672.3204956054689	-177.3594512939453	633.4935913085939	-668.6116333007814	-193.1093292236329	498.1149291992189	-683.0867309570314	-153.1811065673828	480.2593688964845	-791.6502075195315	-200.7745361328126	287.8927307128907	-690.6475830078126	-297.8764038085938	242.5866699218751	-687.2997436523439	-254.457015991211	224.2742309570313	-685.0808715820314	-244.3641662597657	171.5455627441407	-711.8875732421876	-332.0045471191407	96.60539245605472	-693.9409790039064	-290.3079833984376	100.0105285644532	-774.823669433594	-396.5132751464845	44.90832138061524	-749.9857788085939	-165.2021026611328	49.32094192504884	-706.4757080078126	-178.6564178466797	57.14690017700197	-662.8468627929689	-240.5980834960938	32.81907653808594	-621.2133789062501	nan	nan	nan	nan	nan	nan	
1324	6.615	-195.7543945312501	1774.192260742188	-814.9334716796877	-318.5113525390626	1680.201171875	-942.0061645507815	-307.2558898925782	1699.533081054688	-802.7564086914065	-314.0992431640626	1546.567626953125	-869.350280761719	-319.1976623535157	1239.406494140625	-870.761901855469	-159.3260650634766	1494.510986328125	-867.2075195312502	-221.3573608398438	1535.514526367188	-1055.0263671875	-299.6903381347657	1396.902709960938	-1217.935668945313	-261.9705505371094	1363.022338867188	-1219.50390625	-301.0818481445313	1341.3818359375	-1260.921875	-296.7303161621094	1274.228637695313	-1289.188720703125	-375.1936035156251	1259.859741210938	-1248.512329101563	-298.5687561035157	1038.436767578125	-1111.251708984375	-246.1949157714844	1019.431762695313	-1163.189208984375	-249.9109802246094	1046.790161132813	-1060.333740234375	-199.9045867919922	1545.461181640625	-677.2183227539064	-327.3141174316407	1430.841186523438	-529.6043701171876	-297.0868835449219	1394.15185546875	-513.0786132812501	-348.4407043457032	1380.434204101563	-485.2261657714845	-348.0498352050782	1315.398559570313	-453.6538085937501	-420.0365295410157	1303.80908203125	-504.5241699218751	-299.1118164062501	1099.7236328125	-655.3411254882814	-292.0285339355469	1053.843017578125	-594.4855346679689	-241.7434844970704	1071.394775390625	-695.5859375000001	-177.4272613525391	1036.628662109375	-978.041931152344	-186.0085906982422	1028.880004882813	-758.7558593750001	-350.0024108886719	1115.922485351563	-870.3279418945315	-359.4132690429688	1086.757446289063	-899.3125000000002	-365.0525207519532	1086.180053710938	-841.203063964844	-226.6444091796876	763.9282226562501	-1069.94189453125	-183.6690979003907	691.6235961914064	-1080.452026367188	-135.7240295410157	700.3340454101564	-1076.4130859375	-201.2975616455079	635.0590820312501	-1069.080078125	-186.8587646484375	516.8090820312501	-1073.420654296875	-146.6387023925782	486.0289306640626	-963.2956542968752	-157.3156890869141	362.9476318359376	-1058.636840820313	-233.1022338867188	340.9310913085938	-1095.727416992188	-195.0650482177735	326.6696777343751	-1081.388061523438	-214.4058532714844	248.1020660400391	-1040.70068359375	-323.0370483398438	102.7946929931641	-1067.186279296875	-292.6361999511719	95.13874816894533	-984.0827636718752	-390.9013977050782	43.6471290588379	-1017.969665527344	-158.2896270751953	54.82112884521486	-1049.760375976563	-172.8601531982422	55.39514923095705	-1090.835083007813	-225.5289306640626	32.31257247924805	-1133.030883789063	-214.4025115966797	766.5674438476564	-673.0461425781251	-166.1637420654297	720.1553955078126	-665.3678588867189	-134.9628448486328	727.6644287109376	-672.8299560546876	-180.009994506836	635.3735351562501	-669.3491821289064	-197.0302276611329	499.9807434082032	-684.0266113281251	-157.184814453125	481.8939208984376	-792.4893188476565	-203.0712432861329	289.5037231445313	-690.8340454101564	-299.9136962890626	242.8479461669922	-687.6675415039064	-256.0205993652344	225.3187561035157	-684.8779907226564	-245.6136169433594	172.4688110351563	-711.7675781250001	-332.2100830078126	96.27142333984378	-693.4899291992189	-290.7149047851563	100.2940139770508	-774.4880371093752	-396.706512451172	44.83891677856446	-749.6276855468751	-165.3207244873047	49.28214263916017	-706.3690185546876	-178.8084564208985	57.15097808837892	-662.8273315429689	-240.5935821533204	32.71923065185548	-621.0966796875001	nan	nan	nan	nan	nan	nan	
